<?xml version="1.0" encoding="utf-8"?>
<!-- Generator: Adobe Illustrator 23.0.2, SVG Export Plug-In . SVG Version: 6.00 Build 0)  -->
<svg version="1.1" id="Layer_1" xmlns="http://www.w3.org/2000/svg" xmlns:xlink="http://www.w3.org/1999/xlink" x="0px" y="0px"
	 viewBox="0 0 661.9 220.1" style="enable-background:new 0 0 661.9 220.1;" xml:space="preserve">
<style type="text/css">
	.st0{fill-rule:evenodd;clip-rule:evenodd;fill:#F8F8F8;}
	.st1{fill-rule:evenodd;clip-rule:evenodd;fill:#04CFB9;}
</style>
<rect x="203.5" class="st0" width="458.4" height="220.1"/>
<g id="Page-1">
	<g id="Group">
		<path id="Fill-1" class="st1" d="M345.6,121.8c0.8-4.3,3.4-8.9,8.8-8.9c4.7,0,6.8,4.2,6.8,8.1c0,0.6-0.1,0.8-0.8,0.8H345.6
			L345.6,121.8z M354.7,107.9c-9.8,0-16.9,8.6-16.9,20.5c0,12.1,6.5,19.3,17.3,19.3c5.8,0,10.5-2.6,11.9-5l0.1-0.2l-0.4-3.4
			l-1.1,0.6c-2.6,1.3-5.7,2-9.2,2c-8.3,0-11.2-7.2-11.2-13.9c0-0.4,0-0.9,0-1.3h23.4l0.1-0.7c0.2-1,0.2-1.8,0.2-2.8
			C368.9,115.7,364.5,107.9,354.7,107.9L354.7,107.9L354.7,107.9z"/>
		<path id="Fill-3" class="st1" d="M600.8,100.1H597l-0.2,0.6c-1.1,4.1-2.6,6.8-7.1,9.3l-0.4,0.2v3.7h4.4v24.1
			c0,6.8,2.6,9.6,8.8,9.6c3.7,0,7.5-1.6,8.7-3.5l0.2-0.3l-0.5-2.8l-0.9,0.3c-0.9,0.3-3,0.8-5,0.8c-2.6,0-4-0.9-4-5.5V114h10.6v-5.2
			h-10.6V100.1L600.8,100.1z"/>
		<path id="Fill-5" class="st1" d="M390.8,130.3c-0.1,2.1-0.2,6.3-0.2,8.7c-1.3,1.4-3.6,2.8-6.7,2.8c-3.2,0-5.1-1.9-5.1-5
			c0-4.3,3.4-6.5,10-6.5h0.1C389.5,130.2,390.2,130.2,390.8,130.3 M397.8,138.8c0-3.5,0.1-6.7,0.2-9.7c0.1-2.9,0.1-5.7,0.1-8.5
			c0-8.1-4.8-12.7-13.1-12.7c-4.3,0-8.7,2.3-10.6,4.6l-0.2,0.3l0.6,3.7l1-0.6c2.3-1.3,4.9-1.9,7.9-1.9c5.1,0,7.3,2.5,7.3,8v3.4
			c-1,0-2.3,0-3.1,0c-9.8,0-16.2,4.8-16.2,12.3c0,5.9,4.3,10.1,10.4,10.1c3.9,0,7.3-2,9.2-4c0.7,2.5,2.9,4,5.9,4
			c2.3,0,4.6-0.6,6-1.5l0.4-0.2v-3.4h-0.8C398.4,142.7,397.8,141.7,397.8,138.8"/>
		<path id="Fill-7" class="st1" d="M427.9,107.9c-2.5,0-6,1.7-8.3,3.9v-4.7l-1.2,0.5c-3.6,1.6-6.1,2.4-10,3.5l-0.6,0.2v3.1l0.7,0.1
			c4.1,0.8,4.1,1.1,4.1,4.8v18.2c0,4.8-0.6,4.9-1.7,5.1l-3.1,0.5v3.7l0.9,0c0.6,0,1.2-0.1,1.9-0.1c1.6-0.1,3.5-0.2,5.5-0.2
			c2.1,0,4.8,0.1,6.9,0.2l2.5,0.1v-3.7l-4.1-0.5c-1-0.1-1.7-0.2-1.7-5.1v-20.7c2-1.5,4.5-2.4,6.9-2.4c1.4,0,3,0.3,3.6,0.6l1.1,0.6
			l0.8-7.1l-0.7-0.2C430.2,108.1,429.2,107.9,427.9,107.9"/>
		<path id="Fill-9" class="st1" d="M460.7,139.5c-2,1.4-4.9,2.2-8,2.2c-7.4,0-12-5.4-12-14c0-8.8,4.3-14.9,10.5-14.9
			c4.1,0,6,1.9,6.2,6.3l0,0.8h4.4V119c0-2.5,0.1-6,0.3-8.4l0.1-0.6l-0.6-0.2c-2.3-0.8-5.8-1.8-10-1.8c-10.1,0-18.3,9.2-18.3,20.5
			c0,11.9,6.7,19.3,17.4,19.3c5.5,0,10-2.6,11.5-5.2l0.2-0.3l-0.7-3.5L460.7,139.5L460.7,139.5z"/>
		<path id="Fill-11" class="st1" d="M574.1,130.3c-0.1,2.1-0.2,6.3-0.2,8.7c-1.3,1.4-3.6,2.8-6.7,2.8c-3.2,0-5.1-1.9-5.1-5
			c0-4.3,3.4-6.5,10-6.5h0.1C572.7,130.2,573.4,130.2,574.1,130.3 M581,138.8c0-3.5,0.1-6.7,0.2-9.7c0.1-2.9,0.1-5.7,0.1-8.5
			c0-8.1-4.8-12.7-13.1-12.7c-4.3,0-8.7,2.3-10.6,4.6l-0.2,0.3l0.6,3.7l1-0.6c2.3-1.3,4.9-1.9,7.9-1.9c5.1,0,7.3,2.5,7.3,8v3.4
			c-1,0-2.3,0-3.1,0c-9.8,0-16.2,4.8-16.2,12.3c0,5.9,4.3,10.1,10.4,10.1c3.9,0,7.3-2,9.2-4c0.7,2.5,2.9,4,5.9,4
			c2.3,0,4.6-0.6,6-1.5l0.4-0.2v-3.4h-0.8C581.7,142.7,581,141.7,581,138.8"/>
		<path id="Fill-13" class="st1" d="M500.1,137.6v-16.1c0-5.8-1.2-13.6-11.9-13.6c-3.5,0-7.1,1.9-9.6,3.8V91.9l-1.2,0.6
			c-3.5,1.8-6.1,2.8-10,4l-0.6,0.2v3.1l0.7,0.1c4.1,0.8,4.1,1.1,4.1,4.8v32.9c0,4.8-0.6,4.9-1.7,5.1l-3.1,0.5v3.7l2-0.1
			c1.7-0.1,3.9-0.2,6.2-0.2c2.3,0,4.7,0.1,6.5,0.2l1.9,0.1v-3.7l-3.1-0.5c-1.1-0.2-1.7-0.3-1.7-5.1v-21.1c1.3-0.8,4.4-2.5,7.6-2.5
			c5,0,6.8,2.2,6.8,8.3v15.3c0,4.8-0.6,4.9-1.7,5.1l-3.1,0.5v3.7l2-0.1c1.7-0.1,4-0.2,6.2-0.2c2.3,0,4.7,0.1,6.5,0.2l1.9,0.1v-3.7
			l-3.1-0.5C500.7,142.5,500.1,142.4,500.1,137.6"/>
		<path id="Fill-15" class="st1" d="M621.5,121.8c0.8-4.3,3.4-8.9,8.8-8.9c4.7,0,6.8,4.2,6.8,8.1c0,0.6-0.1,0.8-0.8,0.8H621.5
			L621.5,121.8z M630.5,107.9c-9.8,0-16.9,8.6-16.9,20.5c0,12.1,6.5,19.3,17.3,19.3c5.8,0,10.5-2.6,11.9-5l0.1-0.2l-0.4-3.4
			l-1.1,0.6c-2.6,1.3-5.7,2-9.2,2c-8.3,0-11.2-7.2-11.2-13.9c0-0.4,0-0.9,0-1.3h23.5l0.1-0.7c0.2-1,0.2-1.8,0.2-2.8
			C644.8,115.7,640.3,107.9,630.5,107.9L630.5,107.9L630.5,107.9z"/>
		<path id="Fill-18" class="st1" d="M543.4,124.5c-3.6,0-6.3-0.1-8.1-0.2l-1.5-0.1v3.7l3.4,0.7c1.2,0.2,2.3,0.5,2.3,5.1v7.9
			c-2.3,1.2-5.8,1.4-7.8,1.4c-9.2,0-15.2-7.9-15.2-20.2c0-12.1,6.1-20.2,15.2-20.2c5.9,0,9.4,3.2,9.8,8.9l0.1,0.8h4.5l-0.1-0.9
			c-0.3-4.1-0.4-7.4-0.4-10.6l0-0.6l-0.5-0.2c-2.7-1-7-2.3-13.2-2.3c-13.6,0-23.4,10.8-23.4,25.6c0,14.9,8.8,24.6,22.4,24.6
			c6.4,0,12.9-1.5,15.4-2.6l0.5-0.2v-11.4c0-4.4,0.7-4.8,2-5.1l2.9-0.6v-3.7l-2,0.1C548.1,124.4,546,124.5,543.4,124.5"/>
		<path id="Fill-20" class="st1" d="M279.6,121.8c0.8-4.3,3.4-8.9,8.8-8.9c4.7,0,6.8,4.2,6.8,8.1c0,0.6-0.1,0.8-0.8,0.8H279.6
			L279.6,121.8z M288.7,107.9c-9.8,0-16.9,8.6-16.9,20.5c0,12.1,6.5,19.3,17.3,19.3c5.8,0,10.5-2.6,11.9-5l0.1-0.2l-0.4-3.4
			l-1.1,0.6c-2.6,1.3-5.7,2-9.2,2c-8.3,0-11.2-7.2-11.2-13.9c0-0.4,0-0.9,0-1.3h23.4l0.1-0.7c0.2-1,0.2-1.8,0.2-2.8
			C302.9,115.7,298.5,107.9,288.7,107.9L288.7,107.9L288.7,107.9z"/>
		<path id="Fill-22" class="st1" d="M321.4,123.6c-4.4-1.7-7.2-3-7.2-6.1c0-4.3,4-4.9,6.4-4.9c4.3,0,6.2,1.9,6.6,6.5l0.1,0.8h4.4
			l-0.1-0.9c-0.2-3.2-0.3-5.1-0.1-8.3l0-0.6l-0.5-0.2c-2.4-1-6.2-2-10-2c-7.7,0-13.1,4.4-13.1,10.7c0,8,6.1,10.2,10.9,12
			c4.5,1.7,7.3,2.8,7.3,6.3c0,3.6-2.7,5.9-6.9,5.9c-5.6,0-6.9-2.4-7.5-7.5l-0.1-0.7h-4.3l0.1,0.9c0.2,3.5,0.4,6.2,0.2,9.7l0,0.6
			l0.6,0.2c3.6,1.2,7.2,1.8,11.2,1.8c7.5,0,13.4-5.2,13.4-11.8C332.6,128,326.4,125.6,321.4,123.6"/>
		<path id="Fill-24" class="st1" d="M256.2,112c0,5.6-3.7,9-9.6,9c-2,0-3.1-0.1-4.4-0.2v-17.2c1.5-0.1,3.4-0.1,5.1-0.1
			C253,103.5,256.2,106.5,256.2,112 M264.7,139.6c-3.6-4-7.5-9.5-10.4-14.7c5.6-1.9,9.8-7.5,9.8-13.3c0-8.2-5.8-13.1-15.5-13.1
			c-2.3,0-4.4,0.1-6.3,0.1c-1.6,0.1-3.2,0.1-4.6,0.1c-2.9,0-5.8,0-7.6-0.1l-0.9,0v3.7l3.4,0.6c1.2,0.2,2.3,0.5,2.3,5.1v29.4
			c0,4.6-1.1,4.8-2.3,5.1l-3.4,0.7v3.7l1.7-0.1c2-0.1,5-0.2,7.9-0.2c3.3,0,7.6,0.2,9.3,0.2l0.9,0v-3.8l-4.5-0.6
			c-1.2-0.2-2.3-0.3-2.3-5.1v-11.6c1.3,0.1,2.6,0.1,4.3,0.1c4.5,8.2,8.7,14.1,10.9,16.8c2.5,3,6.2,4.7,10.4,4.7
			c1.4,0,2.8-0.3,3.7-0.7l0.5-0.2v-3.3h-0.8C269.1,143.3,266.8,141.9,264.7,139.6"/>
	</g>
</g>
<path class="st1" d="M27.5,0h165.1c15.2,0,27.5,12.3,27.5,27.5v165.1c0,15.2-12.3,27.5-27.5,27.5H27.5C12.3,220.1,0,207.8,0,192.6
	V27.5C0,12.3,12.3,0,27.5,0z M119.5,174.7c5.6,6.1,12.2,9.9,18.1,9.9l1.4,1.4v5.1l-0.8,1.2c-2.3,1.1-6,1.7-9.5,1.7
	c-11.3,0-20.8-4.3-27.1-12c-7.6-8.7-18.8-25.4-29.4-44.2c-6.1,0-8.4,0-11.3-0.2l-1.5-0.1v31.1c0,10.5,1.7,13.3,6.8,14.1l10.1,1.4
	l1.2,1.4v5.7l-1.4,1.4c-8.3-0.3-16.6-0.5-24.9-0.6c-5.3,0-10.7,0.1-17.1,0.3l-6.4,0.2l-1.4-1.4v-5.7l1.1-1.3l7.4-1.4
	c5.2-1,6.9-3.8,6.9-14.1v-77c0-10.3-1.7-13.1-6.9-14.1l-7.4-1.4l-1.2-1.3v-5.7l1.4-1.4c11.3,0.3,22.6,0.3,33.9-0.1
	c6.8-0.2,10.9-0.3,15.8-0.3c24.6,0,40.5,12,40.5,33.4c0,15.1-11.5,29.8-26.8,34.3C99.4,149.8,110,164.3,119.5,174.7z M71.9,126.2
	c-4.2,0-8.4-0.1-12.7-0.5V79.2c2.4-0.2,5.3-0.2,9-0.3l5.4,0c15.8,0,24.7,8.2,24.7,22.8C98.4,116.6,88.3,126.2,71.9,126.2L71.9,126.2
	z M163.7,68.3c-1.4,0-2.3-0.9-2.3-2.3v-6.5c0-1.4,0.9-2.3,2.3-2.3h20.9c1.4,0,2.3,0.9,2.3,2.3V65c0,4.2-0.1,6.1-0.3,8.3
	c-0.2,2.2-0.6,4.4-1.2,6.6c-1.7,5.3-4.4,9.1-8.6,11.9c-4.1,2.8-9.4,4.3-15.1,4.3c-5.8,0-10.8-1.3-14.9-4.1
	c-4.1-2.7-7.1-6.8-8.8-12.1c-0.3-1-0.6-2.1-0.8-3.2c-0.5-2.9-0.8-5.8-0.9-8.7c-0.1-4.6-0.1-9.3,0-13.9c0.1-2.9,0.4-5.8,0.9-8.7
	c0.2-1.1,0.5-2.1,0.8-3.2c1.8-5.3,4.7-9.4,8.8-12.1c4.1-2.7,9.1-4.1,14.9-4.1c3,0,5.7,0.4,8.2,1.1c2.4,0.7,4.6,1.7,6.5,3
	s3.5,2.7,4.9,4.4c1.4,1.7,2.5,3.4,3.3,5.2c0.7,1.2,0.4,2.5-1,3.3l-7,2.8c-1.3,0.7-2.6,0.2-3.2-1c-1.7-3.1-2.9-4.6-4.7-5.8
	c-2.1-1.3-4.6-2-7.1-1.9c-3.2,0-4.6,0.5-7,2.1c-2.2,1.5-3.8,3.7-4.6,6.2c-0.5,1.6-0.8,3.2-0.9,4.8c-0.4,7.1-0.4,14.3,0,21.5
	c0.1,1.6,0.4,3.3,0.9,4.8c0.6,2.3,2,4.2,4,5.5c2.2,1.5,4.8,2.2,7.5,2.2c2.7,0.1,5.3-0.7,7.6-2.1c1.8-1.2,3.2-3.1,3.8-5.2l0.4-1.3
	c0.2-0.9,0.4-1.7,0.6-2.6c0.2-1.2,0.2-2.2,0.2-4.9L163.7,68.3L163.7,68.3z"/>
<rect class="st1" width="41.9" height="41.9"/>
<rect x="187" class="st1" width="33.1" height="33.1"/>
<rect x="182.8" y="182.8" class="st1" width="37.3" height="37.3"/>
<rect y="175.8" class="st1" width="21" height="43.5"/>
<rect y="202.2" class="st1" width="63.1" height="17.9"/>
</svg>
